<svg xmlns="http://www.w3.org/2000/svg" viewBox="0 0 724.21 152.23"><defs><style>.cls-1{fill:#000;}</style></defs><g id="Layer_2" data-name="Layer 2"><g id="Layer_1-2" data-name="Layer 1"><path class="cls-1" d="M142.23,0H91.58L57.33,68.18a4.26,4.26,0,0,0,1.48,5.55L78.14,85,72.07,97.12,49.45,83.88C43.38,80.32,41.17,72,44.52,65.36L77.35,0H10A10,10,0,0,0,0,10V142.23a10,10,0,0,0,10,10H60.65L94.9,84.05a4.25,4.25,0,0,0-1.48-5.54L74.1,67.2l6.07-12.08,22.61,13.24c6.08,3.55,8.28,11.84,4.93,18.51h0L74.88,152.23h67.35a10,10,0,0,0,10-10V10A10,10,0,0,0,142.23,0Z"/><path class="cls-1" d="M225.85,134.8a46,46,0,0,1-18.42-23.43L225.38,101a32.54,32.54,0,0,0,12.1,16.16q8.31,5.78,21.16,5.77,12.11,0,18.43-5.77t6.33-13.32q0-7.38-7-11.91t-23.06-9.26a146.27,146.27,0,0,1-21.26-8.13A37.15,37.15,0,0,1,218.29,63q-5.39-7.36-5.38-18.71a35.35,35.35,0,0,1,5.76-20.13,38,38,0,0,1,15.4-13.23,48.35,48.35,0,0,1,21.17-4.63q15.88,0,27.6,7.75A48.79,48.79,0,0,1,300.6,35.2l-18,10.21q-7.95-18.33-27.41-18.34-9.63,0-15.5,5t-5.85,12a12.74,12.74,0,0,0,2.83,8.6,24,24,0,0,0,8.41,5.86,153.23,153.23,0,0,0,16.16,5.95,149.56,149.56,0,0,1,22.49,8.6,41.55,41.55,0,0,1,14.74,12.19q5.87,7.75,5.86,19.66a35.35,35.35,0,0,1-5.95,20.32A38.36,38.36,0,0,1,282,138.77a57.68,57.68,0,0,1-23.91,4.73Q239,143.5,225.85,134.8Z"/><path class="cls-1" d="M389,8.74H366.3L316.78,141h22.68l18.15-48.38h0l20.23-53.87L416,141h22.5Z"/><path class="cls-1" d="M546.56,63.36V8.74h21V141h-21V83.21h-65V141h-21V8.74h21V63.36Z"/><path class="cls-1" d="M595.88,141V8.74h21V141Z"/><path class="cls-1" d="M666.19,8.74V121.19h58V141h-79V8.74Z"/></g></g></svg>